<svg id="Layer_1" enable-background="new 0 0 512 512" viewBox="0 0 512 512" xmlns="http://www.w3.org/2000/svg"><path d="m240.942 463.548h-209.669c-7.618 0-13.815-6.197-13.815-13.814v-318.589c0-.354.022-.695.044-1.036h85.366c15.272 0 27.697-12.425 27.697-27.696v-85.369c.341-.021.682-.044 1.036-.044h208.213c7.617 0 13.814 6.197 13.814 13.814v143.54c0 4.418 3.582 8 8 8s8-3.582 8-8v-143.54c.001-16.439-13.374-29.814-29.814-29.814h-208.212c-8.079 0-15.369 3.02-21.083 8.732l-100.329 100.33c-5.713 5.714-8.732 13.004-8.732 21.083v318.589c0 16.439 13.375 29.814 29.815 29.814h209.669c4.418 0 8-3.582 8-8s-3.582-8-8-8zm-126.377-435.234v74.098c0 6.449-5.247 11.696-11.697 11.696h-74.096zm-53.367 320.587h137.6c4.418 0 8 3.582 8 8s-3.582 8-8 8h-137.6c-4.418 0-8-3.582-8-8s3.582-8 8-8zm-8 54.586c0-4.418 3.582-8 8-8h142.069c4.418 0 8 3.582 8 8s-3.582 8-8 8h-142.069c-4.418 0-8-3.582-8-8zm20.97-224.964 177.042-102.215-15.061-2.982c-4.334-.858-7.152-5.067-6.294-9.401.857-4.334 5.073-7.146 9.401-6.294l35.938 7.115c2.263.448 4.222 1.851 5.374 3.848 1.153 1.997 1.389 4.395.646 6.578l-11.807 34.683c-1.133 3.328-4.242 5.424-7.572 5.424-.855 0-1.725-.138-2.579-.429-4.183-1.424-6.419-5.969-4.995-10.151l4.948-14.534-177.041 102.214c-1.26.728-2.636 1.073-3.992 1.073-2.766 0-5.454-1.435-6.936-4.001-2.21-3.826-.898-8.719 2.928-10.928zm232.052 27.659v-71.612h-25.25v90.823c0 4.418-3.582 8-8 8s-8-3.582-8-8v-98.823c0-4.418 3.582-8 8-8h41.25c4.418 0 8 3.582 8 8v79.611c0 4.418-3.582 8-8 8s-8-3.581-8-7.999zm-136.069-12.089h-41.25c-4.418 0-8 3.582-8 8v108.223c0 4.418 3.582 8 8 8h41.25c4.418 0 8-3.582 8-8v-108.223c0-4.418-3.582-8-8-8zm-8 108.222h-25.25v-92.223h25.25zm44.966 16h-6.182c-4.418 0-8-3.582-8-8v-145.985c0-4.418 3.582-8 8-8h41.25c4.418 0 8 3.582 8 8v86.975c0 4.418-3.582 8-8 8s-8-3.582-8-8v-78.975h-25.25v130.193c3.542.823 6.182 3.999 6.182 7.792 0 4.418-3.582 8-8 8zm-158.25-78.462v70.463c0 4.418 3.582 8 8 8h41.25c4.418 0 8-3.582 8-8v-70.463c0-4.418-3.582-8-8-8h-41.25c-4.418 0-8 3.582-8 8zm16 8h25.25v54.463h-25.25zm381.699 51.973-22.675-22.677c-1.5-1.501-3.535-2.344-5.657-2.344s-4.156.843-5.657 2.343l-6.917 6.917c-6.319-3.578-13.009-6.352-19.996-8.289v-9.774c0-4.418-3.582-8-8-8h-32.068c-4.418 0-8 3.582-8 8v9.775c-6.988 1.938-13.678 4.71-19.996 8.288l-6.916-6.916c-3.123-3.121-8.188-3.123-11.314 0l-22.676 22.676c-1.5 1.501-2.343 3.535-2.343 5.657s.843 4.157 2.344 5.657l6.916 6.916c-3.579 6.32-6.352 13.009-8.288 19.996h-9.776c-4.418 0-8 3.582-8 8v32.068c0 4.418 3.582 8 8 8h9.776c1.938 6.988 4.71 13.677 8.288 19.995l-6.917 6.917c-3.124 3.125-3.124 8.189 0 11.313l22.675 22.676c3.125 3.125 8.19 3.125 11.313.001l6.919-6.918c6.319 3.579 13.01 6.353 19.995 8.289v9.776c0 4.418 3.582 8 8 8h32.068c4.418 0 8-3.582 8-8v-9.775c6.989-1.938 13.679-4.711 19.997-8.289l6.916 6.917c3.125 3.123 8.189 3.123 11.314 0l22.675-22.675c3.124-3.124 3.124-8.189 0-11.313l-6.917-6.918c3.579-6.321 6.353-13.01 8.289-19.996h9.775c4.418 0 8-3.582 8-8v-32.068c0-4.418-3.582-8-8-8h-9.774c-1.938-6.989-4.712-13.68-8.289-19.997l6.916-6.915c3.124-3.123 3.124-8.189 0-11.313zm-4.941 54.226h8.089v16.068h-8.09c-3.815 0-7.1 2.694-7.846 6.437-1.88 9.43-5.549 18.281-10.905 26.311-2.117 3.174-1.7 7.399.997 10.097l5.726 5.727-11.361 11.361-5.726-5.727c-2.697-2.696-6.924-3.114-10.099-.997-8.021 5.354-16.873 9.023-26.312 10.906-3.741.747-6.435 4.031-6.435 7.846v8.09h-16.068v-8.091c0-3.815-2.694-7.1-6.437-7.846-9.43-1.88-18.281-5.549-26.31-10.905-3.174-2.119-7.399-1.7-10.097.997l-5.728 5.727-11.361-11.362 5.727-5.726c2.697-2.698 3.114-6.925.997-10.098-5.354-8.024-9.024-16.876-10.905-26.311-.746-3.741-4.03-6.436-7.846-6.436h-8.091v-16.068h8.091c3.815 0 7.1-2.694 7.846-6.437 1.88-9.432 5.549-18.283 10.905-26.311 2.117-3.173 1.7-7.4-.998-10.098l-5.726-5.725 11.362-11.362 5.725 5.726c2.697 2.696 6.925 3.114 10.098.997 8.024-5.354 16.876-9.024 26.312-10.905 3.741-.746 6.436-4.03 6.436-7.846v-8.09h16.068v8.09c0 3.815 2.694 7.1 6.437 7.846 9.433 1.88 18.284 5.549 26.311 10.905 3.174 2.119 7.398 1.699 10.098-.997l5.726-5.727 11.361 11.363-5.726 5.725c-2.697 2.698-3.114 6.926-.996 10.099 5.354 8.02 9.022 16.872 10.905 26.312.747 3.741 4.032 6.435 7.846 6.435zm-79.994-49.93c-31.961 0-57.964 26.002-57.964 57.963s26.003 57.964 57.964 57.964 57.964-26.003 57.964-57.964-26.003-57.963-57.964-57.963zm0 99.927c-23.139 0-41.964-18.825-41.964-41.964s18.825-41.963 41.964-41.963 41.964 18.824 41.964 41.963-18.825 41.964-41.964 41.964zm1.777-207.974 20.165 20.413c1.621 1.641 2.454 3.901 2.287 6.201-.166 2.3-1.318 4.416-3.158 5.806l-22.9 17.287c-1.443 1.09-3.136 1.615-4.814 1.615-2.424 0-4.818-1.097-6.391-3.18-2.662-3.526-1.962-8.543 1.564-11.205l4.868-3.674c-70.235 3.452-126.313 61.674-126.313 132.75 0 7.088.571 14.241 1.699 21.261.701 4.362-2.268 8.467-6.63 9.167-.43.069-.856.103-1.278.103-3.859 0-7.257-2.8-7.889-6.732-1.263-7.855-1.902-15.862-1.902-23.798 0-80.85 64.766-146.857 145.14-148.866l-5.831-5.902c-3.104-3.144-3.074-8.208.069-11.313 3.143-3.106 8.209-3.075 11.314.067zm146.82 240.796c1.117 4.274-1.442 8.646-5.717 9.764l-27.76 7.257c-.667.174-1.347.26-2.023.26-1.586 0-3.152-.472-4.491-1.38-1.908-1.294-3.165-3.35-3.448-5.639l-3.521-28.476c-.542-4.385 2.573-8.379 6.958-8.921 4.388-.535 8.38 2.573 8.921 6.958l.755 6.109c9.621-18.661 14.641-39.316 14.641-60.715 0-54.846-34.438-104.787-85.696-124.274-4.13-1.569-6.205-6.19-4.635-10.32 1.569-4.129 6.192-6.202 10.32-4.635 27.932 10.618 51.808 29.207 69.047 53.755 17.64 25.119 26.964 54.676 26.964 85.475 0 25.175-6.203 49.434-18.066 71.155l7.988-2.089c4.268-1.115 8.644 1.441 9.763 5.716zm-53.337 29.342c2.795 3.422 2.286 8.462-1.136 11.257-26.475 21.622-59.902 33.53-94.126 33.53-52.153 0-100.203-27.443-127.031-71.221l-2.199 8.01c-.976 3.552-4.197 5.884-7.71 5.884-.701 0-1.414-.093-2.123-.287-4.26-1.17-6.766-5.572-5.597-9.833l7.596-27.669c.61-2.224 2.151-4.076 4.227-5.081 2.076-1.007 4.486-1.065 6.607-.168l26.421 11.188c4.068 1.724 5.971 6.418 4.248 10.486-1.724 4.068-6.416 5.97-10.486 4.248l-5.626-2.383c24.246 37.479 66.219 60.826 111.673 60.826 30.545 0 60.379-10.627 84.005-29.923 3.422-2.793 8.462-2.286 11.257 1.136z"/></svg>