<svg width="324" height="50" viewBox="0 0 324 50" fill="none" xmlns="http://www.w3.org/2000/svg">
<path d="M0 15.9C0 10.3938 0 7.64071 1.05455 5.53021C2.02249 3.59308 3.59308 2.02249 5.53021 1.05455C7.64071 0 10.3938 0 15.9 0H308.1C313.606 0 316.359 0 318.47 1.05455C320.407 2.02249 321.978 3.59308 322.945 5.53021C324 7.64071 324 10.3938 324 15.9V34.1C324 39.6062 324 42.3593 322.945 44.4698C321.978 46.4069 320.407 47.9775 318.47 48.9454C316.359 50 313.606 50 308.1 50H15.9C10.3938 50 7.64071 50 5.53021 48.9454C3.59308 47.9775 2.02249 46.4069 1.05455 44.4698C0 42.3593 0 39.6062 0 34.1V15.9Z" fill="#D9D9D9"/>
</svg>
