<?xml version="1.0" encoding="iso-8859-1"?>
<!-- Generator: Adobe Illustrator 19.0.0, SVG Export Plug-In . SVG Version: 6.00 Build 0)  -->
<svg version="1.1" id="Capa_1" xmlns="http://www.w3.org/2000/svg" xmlns:xlink="http://www.w3.org/1999/xlink" x="0px" y="0px"
	 viewBox="0 0 512.001 512.001" style="enable-background:new 0 0 512.001 512.001;" xml:space="preserve">
<g>
	<g>
		<path d="M502.001,438.001h-12V192.013c0-27.57-22.43-50-50-50h-29.967V78.322c0-3.861-2.223-7.378-5.712-9.034L260.389,0.967
			c-1.123-0.533-2.397-0.852-3.653-0.94c-0.228-0.016-0.458-0.025-0.689-0.026c0,0-0.001,0-0.002,0c-0.005,0-0.012,0.002-0.017,0
			c-0.013,0-0.026,0-0.04,0c-0.014-0.001-0.027,0-0.04,0c-0.015-0.003-0.012,0-0.018,0h-0.001c-1.344,0.005-2.623,0.275-3.788,0.76
			c-0.156,0.064-0.311,0.133-0.464,0.206L107.746,69.288c-3.489,1.656-5.712,5.172-5.712,9.034v63.691H72.001
			c-27.57,0-50,22.43-50,50v245.988h-12c-5.523,0-10,4.478-10,10v8.25c0,30.74,25.009,55.75,55.75,55.75h400.5
			c30.741,0,55.75-25.01,55.75-55.75v-8.25C512.001,442.478,507.524,438.001,502.001,438.001z M42,192.013L42,192.013
			c0.001-16.542,13.459-30,30.001-30h30.317c2.109,42.075,16.36,82.028,41.553,116.149c27.37,37.069,65.114,63.832,109.152,77.396
			c0.954,0.294,1.946,0.443,2.943,0.443h0.135c0.998,0,1.99-0.149,2.944-0.443c21.884-6.74,42.409-16.862,61.002-30.085
			c4.501-3.2,5.555-9.443,2.354-13.944c-3.199-4.5-9.442-5.556-13.944-2.354c-16.036,11.402-33.66,20.263-52.425,26.36
			c-80.276-26.061-133.999-99.813-133.999-184.47v-66.42l134-63.606l134,63.606v66.419c0,37.337-10.681,73.652-30.888,105.019
			c-2.991,4.643-1.652,10.832,2.991,13.822c4.643,2.992,10.831,1.651,13.822-2.99c20.311-31.529,31.893-67.589,33.792-104.902H440
			c16.542,0,30,13.458,30,30v245.988H42V192.013z M456.251,492.001h-400.5c-19.125,0-34.792-15.098-35.708-34h471.915
			C491.042,476.903,475.376,492.001,456.251,492.001z"/>
	</g>
</g>
<g>
	<g>
		<path d="M288.667,465.001h-65.333c-5.523,0-10,4.478-10,10c0,5.522,4.477,10,10,10h65.333c5.523,0,10-4.478,10-10
			C298.667,469.479,294.19,465.001,288.667,465.001z"/>
	</g>
</g>
<g>
	<g>
		<path d="M435.751,297.501h-28.083c-5.523,0-10,4.478-10,10c0,5.522,4.477,10,10,10h3.941l-62.356,62.356L329.2,359.803
			c-1.875-1.875-4.419-2.929-7.071-2.929c-2.652,0-5.196,1.054-7.071,2.929l-41.82,41.82c-3.905,3.905-3.905,10.237,0,14.143
			c1.953,1.952,4.512,2.929,7.071,2.929s5.119-0.977,7.071-2.929l34.749-34.749l20.053,20.054c1.875,1.875,4.419,2.929,7.071,2.929
			c2.652,0,5.196-1.054,7.071-2.929l69.427-69.427v3.941c0,5.522,4.477,10,10,10s10-4.478,10-10v-28.084
			C445.751,301.978,441.274,297.501,435.751,297.501z"/>
	</g>
</g>
<g>
	<g>
		<path d="M171.001,358.695h-92c-5.523,0-10,4.478-10,10c0,5.522,4.477,10,10,10h92c5.523,0,10-4.478,10-10
			C181.001,363.173,176.524,358.695,171.001,358.695z"/>
	</g>
</g>
<g>
	<g>
		<path d="M197.881,401.621c-1.86-1.861-4.43-2.931-7.07-2.931c-2.63,0-5.21,1.07-7.07,2.931c-1.86,1.859-2.93,4.439-2.93,7.069
			c0,2.641,1.07,5.21,2.93,7.07c1.86,1.87,4.44,2.93,7.07,2.93s5.21-1.06,7.07-2.93c1.87-1.86,2.93-4.43,2.93-7.07
			C200.811,406.06,199.751,403.48,197.881,401.621z"/>
	</g>
</g>
<g>
	<g>
		<path d="M147.417,398.695H79.001c-5.523,0-10,4.478-10,10c0,5.522,4.477,10,10,10h68.417c5.523,0,10-4.478,10-10
			C157.418,403.173,152.94,398.695,147.417,398.695z"/>
	</g>
</g>
<g>
	<g>
		<path d="M134.335,318.695H79.001c-5.523,0-10,4.478-10,10c0,5.522,4.477,10,10,10h55.334c5.523,0,10-4.478,10-10
			C144.335,323.173,139.858,318.695,134.335,318.695z"/>
	</g>
</g>
<g>
	<g>
		<path d="M348.78,286.638c-3.948-3.862-10.279-3.79-14.141,0.159l-0.545,0.555c-3.881,3.93-3.841,10.261,0.088,14.142
			c1.949,1.925,4.488,2.885,7.026,2.885c2.58,0,5.16-0.992,7.116-2.974l0.615-0.625C352.8,296.831,352.729,290.5,348.78,286.638z"/>
	</g>
</g>
<g>
	<g>
		<path d="M364.322,94.578l-104-49.366c-2.714-1.288-5.862-1.288-8.576,0l-104,49.366c-3.489,1.656-5.712,5.172-5.712,9.034v47.452
			c0,72.17,43.319,135.734,110.359,161.938c1.17,0.458,2.406,0.687,3.641,0.687s2.47-0.229,3.641-0.687
			c67.041-26.204,110.359-89.769,110.359-161.938v-47.452C370.034,99.75,367.811,96.234,364.322,94.578z M350.034,151.064
			c0,62.556-36.765,117.804-94,141.836c-57.235-24.031-94-79.28-94-141.836v-41.129l94-44.62l94,44.62V151.064z"/>
	</g>
</g>
<g>
	<g>
		<path d="M315.071,138.565c-3.905-3.906-10.237-3.905-14.143,0l-56.997,56.997l-24.532-24.534c-3.905-3.905-10.237-3.905-14.143,0
			c-3.906,3.905-3.905,10.237,0,14.143l31.605,31.605c1.953,1.953,4.512,2.929,7.071,2.929s5.119-0.976,7.071-2.929l64.068-64.068
			C318.976,148.803,318.976,142.471,315.071,138.565z"/>
	</g>
</g>
<g>
</g>
<g>
</g>
<g>
</g>
<g>
</g>
<g>
</g>
<g>
</g>
<g>
</g>
<g>
</g>
<g>
</g>
<g>
</g>
<g>
</g>
<g>
</g>
<g>
</g>
<g>
</g>
<g>
</g>
</svg>
