<?xml version="1.0" encoding="UTF-8"?>
<svg xmlns="http://www.w3.org/2000/svg" viewBox="0 0 64 64" width="512" height="512"><g id="_58_invoice_online" data-name="58 invoice online"><path d="M57,40V10a5,5,0,0,0-5-5H12a5,5,0,0,0-5,5V40a5,5,0,0,0,5,5H25v4H22a3,3,0,0,0-3,3v2a1,1,0,0,0,1,1h9V53H21V52a1,1,0,0,1,1-1h7V49H27V45h2V43H12a3,3,0,0,1-3-3V37h9V35H13V11H51V28h2V10a1,1,0,0,0-1-1H12a1,1,0,0,0-1,1V35H9V10a3,3,0,0,1,3-3H52a3,3,0,0,1,3,3V35H53V34a5,5,0,0,0-5-5H44V22h1V20H19v2h1V37.5a3.5,3.5,0,0,0,7,0V33a2,2,0,0,1,2-2,2,2,0,0,1,2,2V55a4,4,0,0,0,4,4H53a4,4,0,0,0,4-4V52a1,1,0,0,0-1-1H53V44.9A5,5,0,0,0,57,40Zm-2-3v3a3,3,0,0,1-2,2.82V37ZM29,29a4,4,0,0,0-4,4v4.5a1.5,1.5,0,0,1-3,0V22H42v7ZM55,55a2,2,0,0,1-2,2H38.46A4,4,0,0,0,39,55V53H55ZM38,51a1,1,0,0,0-1,1v3a2,2,0,0,1-2,2,2,2,0,0,1-2-2V33a4,4,0,0,0-.54-2H48a3,3,0,0,1,3,3V51Zm5-16h2v2H41v1h3a1,1,0,0,1,1,1v3a1,1,0,0,1-1,1H43v2H41V43H39V41h4V40H40a1,1,0,0,1-1-1V36a1,1,0,0,1,1-1h1V33h2ZM35,47h2v2H35Zm4,0h2v2H39Zm4,0h2v2H43Zm4,0h2v2H47ZM15,15V13h2v2Zm6,0H19V13h2Zm4-2v2H23V13Zm4,0v2H27V13Zm4,0v2H31V13Zm4,0v2H35V13Zm4,0v2H39V13Zm4,2H43V13h2Zm4,0H47V13h2Z"/></g></svg>
