<?xml version="1.0" encoding="utf-8"?>
<!-- Generator: Adobe Illustrator 26.4.0, SVG Export Plug-In . SVG Version: 6.00 Build 0)  -->
<svg version="1.1" id="Icons" xmlns="http://www.w3.org/2000/svg" xmlns:xlink="http://www.w3.org/1999/xlink" x="0px" y="0px"
	 viewBox="0 0 512 512" style="enable-background:new 0 0 512 512;" xml:space="preserve">
<style type="text/css">
	.st0{display:none;}
</style>
<path d="M477.9,0H34.1C15.3,0,0,15.3,0,34.1v443.7C0,496.7,15.3,512,34.1,512h443.7c18.9,0,34.1-15.3,34.1-34.1V34.1
	C512,15.3,496.7,0,477.9,0z M34.1,17.1h443.7c9.4,0,17.1,7.6,17.1,17.1v34.1H17.1V34.1C17.1,24.7,24.7,17.1,34.1,17.1z M477.9,494.9
	H34.1c-9.4,0-17.1-7.6-17.1-17.1V85.3h477.9v392.5C494.9,487.3,487.3,494.9,477.9,494.9z"/>
<path class="st0" d="M42.7,51.2h8.5c4.7,0,8.5-3.8,8.5-8.5s-3.8-8.5-8.5-8.5h-8.5c-4.7,0-8.5,3.8-8.5,8.5S38,51.2,42.7,51.2z"/>
<path class="st0" d="M85.3,51.2h8.5c4.7,0,8.5-3.8,8.5-8.5s-3.8-8.5-8.5-8.5h-8.5c-4.7,0-8.5,3.8-8.5,8.5S80.6,51.2,85.3,51.2z"/>
<path class="st0" d="M128,51.2h8.5c4.7,0,8.5-3.8,8.5-8.5s-3.8-8.5-8.5-8.5H128c-4.7,0-8.5,3.8-8.5,8.5S123.3,51.2,128,51.2z"/>
<path d="M418.1,51.2h51.2c4.7,0,8.5-3.8,8.5-8.5s-3.8-8.5-8.5-8.5h-51.2c-4.7,0-8.5,3.8-8.5,8.5S413.4,51.2,418.1,51.2z"/>
<g>
	<path d="M339,181.7c-0.1-0.1-0.1-0.1-0.2-0.2l-36.7-36.7c-10.2-9.8-26.4-9.8-36.6,0L98,312.1c-3.7,3.8-6.5,8.4-8.2,13.5L65.7,398
		c-2.8,8.1,1.5,17,9.6,19.8c3.3,1.1,6.9,1.1,10.2,0l72.5-24.2c5.1-1.7,9.7-4.5,13.6-8.3l167.2-167.3
		C348.9,208.1,349,191.8,339,181.7z M82.8,400.8l20.9-62.8l41.9,41.9L82.8,400.8z M161.4,371.5l-18.6-18.6l0,0L123,333.1l0,0
		l-10.9-10.9l141.1-141l18.6,18.6l0,0l20.3,20.3l0,0l10.3,10.3L161.4,371.5z M327,205.8c0,0-0.1,0.1-0.1,0.1v0l-12.3,12.3
		l-49.2-49.2l12.4-12.3c3.3-3.4,8.8-3.5,12.2-0.2c0.1,0.1,0.1,0.1,0.2,0.2l36.7,36.8C330.3,196.9,330.3,202.4,327,205.8z"/>
	<path d="M438.6,425.8H162.8c-4.7,0-8.5,3.8-8.5,8.5c0,4.7,3.8,8.5,8.5,8.5h275.8c4.7,0,8.5-3.8,8.5-8.5
		C447.1,429.6,443.3,425.8,438.6,425.8z"/>
</g>
</svg>
