<svg id="&#x421;&#x43B;&#x43E;&#x439;_1" height="512" viewBox="0 0 128 128" width="512" xmlns="http://www.w3.org/2000/svg"><circle cx="114" cy="12" r="2"/><circle cx="106" cy="12" r="2"/><circle cx="98" cy="12" r="2"/><path d="m121 0h-114a7 7 0 0 0 -7 7v114a7 7 0 0 0 7 7h114a7 7 0 0 0 7-7v-114a7 7 0 0 0 -7-7zm-114 4h114a3 3 0 0 1 3 3v13h-120v-13a3 3 0 0 1 3-3zm114 120h-114a3 3 0 0 1 -3-3v-97h120v97a3 3 0 0 1 -3 3z"/><path d="m26 36a10 10 0 1 0 10 10 10 10 0 0 0 -10-10zm0 16a6 6 0 1 1 6-6 6 6 0 0 1 -6 6z"/><path d="m26 64a10 10 0 1 0 10 10 10 10 0 0 0 -10-10zm0 16a6 6 0 1 1 6-6 6 6 0 0 1 -6 6z"/><path d="m26 92a10 10 0 1 0 10 10 10 10 0 0 0 -10-10zm0 16a6 6 0 1 1 6-6 6 6 0 0 1 -6 6z"/><path d="m110 44h-64a2 2 0 0 0 0 4h64a2 2 0 0 0 0-4z"/><path d="m110 72h-64a2 2 0 0 0 0 4h64a2 2 0 0 0 0-4z"/><path d="m110 100h-64a2 2 0 0 0 0 4h64a2 2 0 0 0 0-4z"/></svg>