<svg height="480pt" viewBox="-24 0 480 480" width="480pt" xmlns="http://www.w3.org/2000/svg"><path d="m392 48h-32v-8c0-4.417969-3.582031-8-8-8h-73.472656c.949218-2.5625 1.445312-5.269531 1.472656-8 0-13.253906-10.746094-24-24-24s-24 10.746094-24 24c.027344 2.730469.523438 5.4375 1.472656 8h-73.472656c-4.417969 0-8 3.582031-8 8v8h-32c-22.082031.027344-39.972656 17.917969-40 40v64h16v-64c0-13.253906 10.746094-24 24-24h32v16h-16c-13.253906 0-24 10.746094-24 24v40h16v-40c0-4.417969 3.582031-8 8-8h17.472656c3.378906 9.554688 12.394532 15.957031 22.527344 16h160c10.132812-.042969 19.148438-6.445312 22.527344-16h17.472656c4.417969 0 8 3.582031 8 8v320c0 4.417969-3.582031 8-8 8h-120v16h120c13.253906 0 24-10.746094 24-24v-320c0-13.253906-10.746094-24-24-24h-16v-16h32c13.253906 0 24 10.746094 24 24v352c0 13.253906-10.746094 24-24 24h-136v16h136c22.082031-.027344 39.972656-17.917969 40-40v-352c-.027344-22.082031-17.917969-39.972656-40-40zm-144-24c0-4.417969 3.582031-8 8-8s8 3.582031 8 8-3.582031 8-8 8-8-3.582031-8-8zm96 64c0 4.417969-3.582031 8-8 8h-160c-4.417969 0-8-3.582031-8-8v-40h176zm0 0"/><path d="m248 144h16v16h-16zm0 0"/><path d="m280 144h16v16h-16zm0 0"/><path d="m216 144h16v16h-16zm0 0"/><path d="m198.742188 334.601562-46.742188-12.714843v-12c15.027344-10.445313 23.988281-27.585938 24-45.886719v-8c4.417969 0 8-3.582031 8-8v-24c0-35.347656-28.652344-64-64-64s-64 28.652344-64 64v24c0 4.417969 3.582031 8 8 8v8c.011719 18.300781 8.972656 35.441406 24 45.886719v12l-46.769531 12.722656c-24.300781 6.730469-41.152344 28.8125-41.230469 54.03125v83.359375c0 4.417969 3.582031 8 8 8h224c4.417969 0 8-3.582031 8-8v-83.359375c-.082031-25.226563-16.941406-47.316406-41.257812-54.039063zm-126.742188-110.601562c0-26.507812 21.492188-48 48-48s48 21.492188 48 48v16h-5.265625c-7.339844 0-13.738281-4.996094-15.519531-12.121094l-3.453125-13.824218c-.75-2.988282-3.15625-5.285157-6.175781-5.894532-.523438-.109375-1.054688-.164062-1.585938-.160156-2.519531 0-4.890625 1.1875-6.398438 3.199219l-4.800781 6.402343c-10.605469 14.066407-27.183593 22.355469-44.800781 22.398438h-8zm8 40v-8c19.726562-.042969 38.578125-8.132812 52.199219-22.398438 3.902343 12.351563 14.890625 21.117188 27.800781 22.175782v8.222656c0 22.089844-17.910156 40-40 40s-40-17.910156-40-40zm40 56c5.421875-.015625 10.8125-.824219 16-2.398438v10.398438c.027344 2.292969 1.042969 4.460938 2.792969 5.945312l-18.792969 15.65625-18.792969-15.648437c1.75-1.484375 2.769531-3.65625 2.792969-5.953125v-10.398438c5.1875 1.574219 10.578125 2.382813 16 2.398438zm104 144h-24v-72h-16v72h-128v-72h-16v72h-24v-75.359375c.058594-18.015625 12.101562-33.792969 29.464844-38.601563l37.734375-10.269531 31.679687 26.398438c2.96875 2.46875 7.273438 2.46875 10.242188 0l31.679687-26.398438 37.710938 10.261719c17.371093 4.804688 29.421875 20.585938 29.488281 38.609375zm0 0"/><path d="m249.441406 262.976562c6.292969 1.957032 13.128906 1.082032 18.726563-2.402343l13.398437 11.121093c-1.015625 2.652344-1.546875 5.464844-1.566406 8.304688-.027344 10.824219 7.191406 20.328125 17.625 23.203125 10.4375 2.875 21.503906-1.59375 27.023438-10.90625 5.515624-9.3125 4.117187-21.164063-3.417969-28.9375l19.890625-39.648437c.953125.152343 1.914062.25 2.878906.289062 11.472656.050781 21.394531-7.988281 23.722656-19.222656 2.324219-11.238282-3.589844-22.554688-14.140625-27.0625-10.550781-4.507813-22.820312-.953125-29.328125 8.496094-6.507812 9.449218-5.457031 22.175781 2.515625 30.429687l-19.890625 39.648437c-.953125-.152343-1.914062-.25-2.878906-.289062-4.289062.023438-8.496094 1.207031-12.167969 3.425781l-13.433593-11.121093c1.027343-2.652344 1.570312-5.464844 1.601562-8.304688.03125-10.363281-6.59375-19.574219-16.425781-22.84375-9.832031-3.273438-20.652344.136719-26.835938 8.453125-6.179687 8.316406-6.328125 19.660156-.363281 28.132813l-13.816406 19.28125c-2.125-.644532-4.335938-.992188-6.558594-1.023438-11.117188-.046875-20.828125 7.511719-23.5 18.304688-2.675781 10.792968 2.375 22.011718 12.230469 27.160156 9.851562 5.152344 21.949219 2.894531 29.28125-5.464844 7.335937-8.355469 8-20.644531 1.613281-29.742188zm94.558594-70.976562c4.417969 0 8 3.582031 8 8s-3.582031 8-8 8-8-3.582031-8-8 3.582031-8 8-8zm-40 80c4.417969 0 8 3.582031 8 8s-3.582031 8-8 8-8-3.582031-8-8 3.582031-8 8-8zm-48-40c4.417969 0 8 3.582031 8 8s-3.582031 8-8 8-8-3.582031-8-8 3.582031-8 8-8zm-40 72c-4.417969 0-8-3.582031-8-8s3.582031-8 8-8 8 3.582031 8 8-3.582031 8-8 8zm0 0"/><path d="m288 352h64v16h-64zm0 0"/><path d="m288 384h64v16h-64zm0 0"/></svg>